<svg width="217" height="123" viewBox="0 0 217 123" fill="none" xmlns="http://www.w3.org/2000/svg">
<path fill-rule="evenodd" clip-rule="evenodd" d="M151.244 0.675658L150.969 1.35132V3.5461V5.74125L149.7 7.01954L148.43 8.2982H145.672H142.913V8.66701V9.03582H145.672H148.43L149.7 10.3145L150.969 11.5928L150.975 14.0948L150.981 16.5964L151.301 17.1068L151.622 17.6173L151.765 14.5252L151.907 11.4331L153.05 10.2344L154.192 9.03582H156.975H159.758V8.66701V8.2982H156.819H153.88L153.532 7.37618L153.185 6.45416H152.633H152.082L151.894 5.62434L151.706 4.79452L151.612 2.39726L151.518 0L151.244 0.675658ZM87.026 4.77681L86.822 5.31232L87.059 5.69884L87.2963 6.08535H87.9678H88.6394L88.8079 5.62434L88.9759 5.16333L88.8163 4.70231L88.6566 4.2413H87.9433H87.23L87.026 4.77681ZM81.527 12.5384L81.2967 13.1421L81.6728 13.5209L82.0488 13.8997L82.7285 13.7676L83.4081 13.636V12.9032V12.1707L82.5827 12.0527L81.757 11.9347L81.527 12.5384ZM199.348 21.8873L199.498 22.3406L202.185 25.4154L204.873 28.4901L204.905 30.7081L204.938 32.9258L202.305 35.9301L199.672 38.9344V39.3158V39.6971L200.679 38.9728L201.686 38.2484L204.066 36.0551L206.446 33.8618L207.393 34.1831L208.34 34.5047L209.221 34.1764L210.103 33.8478L213.329 36.6047L216.555 39.3615L216.778 39.1376L217 38.9138L216.458 38.2661L215.915 37.6185L213.79 35.1512L211.664 32.6835V30.6285V28.5735L213.277 26.8261L214.891 25.079L215.938 23.686L216.985 22.293L216.78 22.0861L216.574 21.8796L213.462 24.6689L210.349 27.4582L209.288 27.0857L208.227 26.7132L207.344 27.0422L206.46 27.3712L203.989 25.1421L201.517 22.913L200.357 22.1735L199.198 21.4341L199.348 21.8873ZM131.106 22.3129L130.89 22.8662L130.697 27.335L130.504 31.8039L129.357 32.9593L128.209 34.1148L124.484 34.3188L120.759 34.5227L119.477 34.7488L118.196 34.9753L119.294 35.239L120.393 35.5027L124.301 35.5465L128.209 35.5901L129.346 36.7345L130.482 37.8789L130.686 42.5432L130.891 47.2075L131.109 47.7608L131.327 48.314L131.591 46.2855L131.855 44.2571L131.891 40.8456L131.928 37.4341H132.468H133.009L133.609 36.5121L134.209 35.5901L138.286 35.5465L142.364 35.5027L143.462 35.239L144.561 34.9753L143.279 34.7488L141.998 34.5227L138.229 34.3158L134.461 34.1093L133.194 32.8336L131.928 31.5579L131.895 28.5027L131.864 25.4478L131.593 23.6038L131.322 21.7597L131.106 22.3129ZM181.098 26.7836L180.687 27.1974L180.881 27.7057L181.075 28.2139H181.746H182.418L182.654 27.8288L182.89 27.4438L182.448 26.9068L182.005 26.3698H181.757H181.509L181.098 26.7836ZM170.011 28.3404L169.462 29.5047L168.632 29.6231L167.803 29.7419L168.013 30.0841L168.223 30.4267H168.951H169.68L170.176 31.6139L170.671 32.8011L170.799 31.9282L170.926 31.0552L171.476 30.7675L172.025 30.4798L172.757 30.2117L173.49 29.9436L172.757 29.7784L172.025 29.6131L171.405 29.0592L170.784 28.5056L170.672 27.8407L170.56 27.1757L170.011 28.3404ZM21.8158 29.0444L18.8131 30.2423L18.4341 30.6241L18.0547 31.0061L18.2869 34.0355L18.5187 37.0653H18.8025H19.0866L20.1618 36.154L21.2369 35.243L23.081 34.3099L24.9247 33.3772H26.4957H28.0662L29.6167 34.1333L31.1671 34.8893L32.6937 36.5571L34.2203 38.2252L35.796 41.6101L37.3717 44.9947L38.3308 48.0672L39.2898 51.1398L40.2009 56.1084L41.1119 61.077L41.3152 63.1781L41.5184 65.2792L41.6989 66.4778L41.8795 67.6764H42.6191H43.3588L44.0674 67.2947L44.7756 66.913V64.9071V62.9011L43.7074 60.1933L42.6397 57.4855L41.8897 53.2686L41.1401 49.0516L40.0141 45.2344L38.8881 41.4172L37.2685 37.9272L35.6492 34.4368L34.3357 32.6344L33.0218 30.8317L31.192 29.4789L29.3622 28.1261L27.0904 27.9863L24.8185 27.8462L21.8158 29.0444ZM33.0577 28.4363V28.6587L34.7367 30.5396L36.4156 32.4202L38.385 36.4948L40.3543 40.569L41.3016 43.8883L42.2489 47.2075L43.3123 52.5553L44.3754 57.903L45.308 60.2007L46.2403 62.4984V64.6968V66.8953L46.6922 67.1767L47.1441 67.4581L53.3751 67.9151L59.6061 68.372L61.7117 68.393L63.8172 68.4141V66.0116V63.6088L62.5678 60.488L61.3184 57.3675L60.9064 55.4224L60.4945 53.4773L59.2113 49.1482L57.9286 44.8188L56.525 41.7447L55.1218 38.6707L53.6076 36.2561L52.0934 33.8415L50.2534 32.1081L48.4133 30.3747L46.8691 29.6935L45.3249 29.0127L41.3247 28.6133L37.3248 28.2139H35.1911H33.0577V28.4363ZM59.6061 32.2214L57.409 32.9037L56.4785 33.2865L55.548 33.6693L55.0515 34.2716L54.5549 34.8742L54.9717 35.7959L55.3887 36.7171L55.9702 36.9421L56.5517 37.1667L59.2948 35.783L62.0383 34.3988L64.688 34.3815L67.3377 34.3645L69.3477 35.291L71.3573 36.2178L72.7086 37.4127L74.0598 38.6077L75.7622 41.3582L77.4642 44.1088L78.8213 47.3178L80.178 50.5268L80.7778 52.7397L81.378 54.9525L82.4846 60.3781L83.5912 65.804V66.8783V67.953L83.8201 69.1056L84.0489 70.2581H85.0625H86.0761L86.2984 69.6746L86.5207 69.0912V67.8771V66.6626L85.9487 65.0491L85.3767 63.4351L84.5085 59.1938L83.6399 54.9525L82.326 51.1649L81.0122 47.3776L80.1373 45.3845L79.2622 43.3919L77.7542 40.791L76.2459 38.1905L74.1879 35.9511L72.1296 33.7121L70.4979 32.7491L68.8662 31.7858L65.3347 31.6626L61.8032 31.5394L59.6061 32.2214ZM96.913 32.4375L96.709 32.973L96.946 33.3595L97.1832 33.746H97.8548H98.5264L98.6949 33.285L98.8629 32.824L98.7033 32.363L98.5436 31.902H97.8303H97.117L96.913 32.4375ZM73.338 32.8196V33.0943L75.3411 35.2733L77.3441 37.4522L78.7956 39.9324L80.2476 42.413L81.7284 46.1369L83.2093 49.8608L84.1317 53.3287L85.0541 56.7966L85.0548 57.633L85.0559 58.4699L86.3376 62.463L87.6192 66.4557V68.1725V69.8893L88.077 69.8967L88.5347 69.904L93.4782 70.4425L98.4217 70.981L99.4287 70.9883L100.436 70.9957V68.6446V66.2934L99.2093 63.5734L97.9826 60.8535L97.5146 58.2718L97.047 55.6902L95.6361 51.3227L94.2252 46.9557L92.4785 43.5844L90.7318 40.2131L88.1341 37.5388L85.5367 34.8642L83.5568 33.9636L81.5772 33.0626L77.4576 32.8037L73.338 32.5448V32.8196ZM168.752 34.3402L169.833 35.7745L169.825 36.3867L169.818 36.9989L169.257 37.6775L168.697 38.3561L168.163 39.062L167.631 39.7676L168.367 39.3726L169.103 38.9776L169.742 38.2676L170.38 37.5577L171.075 37.6093L171.771 37.6609L173.126 38.7024L174.482 39.744L174.097 39.0196L173.713 38.2956L173.144 37.8195L172.574 37.3437V36.3277V35.3116L173.144 34.8359L173.713 34.3597L174.12 33.5933L174.527 32.8269L173.209 33.8397L171.89 34.8524H170.995H170.101L169.628 34.2789L169.155 33.7058L168.414 33.3057L167.672 32.9059L168.752 34.3402ZM23.9679 35.2235L22.3852 35.9467L21.3131 36.7157L20.2412 37.4843V37.828V38.1717H23.527H26.8128L28.4705 37.3607L30.1282 36.5493V36.0511V35.5524L28.8583 35.018L27.5884 34.4836L26.5696 34.4918L25.5509 34.4999L23.9679 35.2235ZM62.5356 37.1553L61.437 37.5558L59.6976 38.6331L57.9583 39.7104V40.5303V41.3501L58.4413 42.0155L58.9243 42.6804L60.4227 41.9107L61.9211 41.1406L63.5085 40.7814L65.0963 40.4222L66.7452 40.7936L68.3945 41.1654L70.1885 42.3241L71.9828 43.4826L73.602 45.6984L75.2217 47.9142L76.6439 50.8801L78.0662 53.8461L79.1644 57.241L80.2629 60.6355L80.8873 65.0782L81.5113 69.5205H82.2283H82.9449L82.6926 66.6622L82.4406 63.8039L81.7207 60.1159L81.0012 56.4278L80.052 53.4773L79.1029 50.5268L77.15 46.6517L75.1975 42.7767L73.3519 40.6914L71.5067 38.6062L69.604 37.6513L67.7013 36.6965L65.6679 36.7256L63.6341 36.7548L62.5356 37.1553ZM27.5649 39.689L24.8185 41.196L22.4383 42.8663L20.0581 44.537L17.3118 46.8701L14.5654 49.2032L12.7227 51.3401L10.8801 53.4773L9.57829 55.1369L8.27614 56.7966L6.64991 59.5626L5.02332 62.3287L3.86215 64.9104L2.70098 67.492L1.77233 71.109L0.843323 74.7259L0.421478 78.9159L0 83.1063L0.425873 87.4697L0.851745 91.8334L1.30032 94.0463L1.7489 96.2591L2.66436 96.2237L3.57982 96.1883L7.60785 95.7347L11.6359 95.2811L25.9922 95.0793L40.3481 94.8776L42.6624 87.639L44.9766 80.4004L46.8724 80.2893L48.7681 80.1787L51.2087 87.7577L53.6494 95.3371L54.9801 95.3427L56.3104 95.3482L64.3559 95.8881L72.4013 96.4281L72.6177 96.1592L72.8338 95.8903L75.3725 88.0369L77.9113 80.1835L79.7181 80.2919L81.5252 80.4004L84.4488 89.2643L87.3724 98.1279L91.577 99.1502L95.7815 100.172L96.1114 99.8399L96.4417 99.5072L97.1334 96.1079L97.8248 92.709L98.2624 88.4319L98.7003 84.1552L98.4539 81.1808L98.2078 78.2063L97.8164 76.6407L97.4249 75.0747L96.9547 74.682L96.4846 74.2888L94.3406 73.9366L92.1965 73.5844L86.7038 73.0485L81.211 72.5126L76.4506 72.3087L71.6902 72.1047L63.2679 71.7315L54.8457 71.3583L47.522 70.9493L40.1983 70.5406L39.7948 70.215L39.3909 69.8893L39.1455 66.3738L38.9002 62.8583L37.9756 58.177L37.0506 53.4957L36.1216 50.1672L35.1926 46.8387L34.1138 44.0196L33.0346 41.2008L31.9452 39.6861L30.8558 38.1717L30.5838 38.1769L30.3113 38.1821L27.5649 39.689ZM171.75 39.4887L171.476 39.7698V40.6037V41.4375L170.511 42.2017L169.546 42.9662L168.405 42.9718L167.264 42.9777L167.814 43.3351L168.363 43.6924L169.313 43.6983L170.263 43.7039L170.87 44.3784L171.476 45.0526V46.0163V46.9796L171.842 47.2075L172.208 47.4355V46.18V44.9246L172.878 44.3142L173.547 43.7039L174.434 43.6983L175.32 43.6924L175.87 43.3351L176.419 42.9777L175.278 42.9718L174.138 42.9662L173.195 42.2198L172.253 41.4733L172.139 40.3403L172.025 39.2077L171.75 39.4887ZM137.878 47.9437L137.42 48.4674V49.0361V49.6048H137.787H138.153V50.5051V51.4053L137.787 51.6333L137.42 51.8612V52.5202V53.1793L134.74 53.9638L132.059 54.7482L130.62 55.7414L129.181 56.7346L126.801 56.7033L124.421 56.6719L122.773 57.1639L121.125 57.6559L114.534 60.7605L107.942 63.8652L106.661 64.4571L105.379 65.0487L103.966 65.6229L102.553 66.1971L102.776 66.7825L102.999 67.3681V67.7465V68.1253L103.993 67.8738L104.988 67.6226L106.648 66.8916L108.309 66.161L109.041 65.8291L109.773 65.4975L114.168 63.4067L118.562 61.3163L120.21 60.5927L121.858 59.8691L123.358 59.3517L124.858 58.8339L126.104 58.904L127.35 58.974L128.892 58.8995L130.434 58.825L131.089 58.1527L131.744 57.4804L133.132 56.8379L134.52 56.1951L136.383 55.6378L138.246 55.0805L139.127 55.3033L140.009 55.526L140.405 56.4027L140.802 57.279L142.377 57.5169L143.952 57.7547L144.393 58.2899L144.834 58.825H145.448H146.062L146.419 59.1846L146.777 59.5446L148.137 59.1241L149.497 58.7037L150.218 59.3613L150.94 60.0192L152.271 59.7677L153.601 59.5162L154.069 60.1609L154.537 60.8055L158.013 59.9735L161.49 59.1415L164.011 59.251L166.532 59.3605L168.053 60.211L169.574 61.0615L169.937 61.5107L170.3 61.9599L171.254 63.6904L172.208 65.4212V66.7651V68.1094L173.306 68.5269L174.405 68.9444V69.3047V69.6647L175.389 70.6988L176.373 71.7333H176.788H177.203L178.424 72.8309L179.644 73.9289L180.867 74.7672L182.09 75.6058L182.092 76.0561L182.095 76.5061L184.107 77.465L186.119 78.4235L186.945 78.3055L187.771 78.1875V77.4499V76.7123L185.851 75.8131L183.932 74.9143L183.728 74.3379L183.524 73.7618L180.207 71.3645L176.89 68.9673L176.172 67.953L175.454 66.9388H174.978H174.501L174.311 65.5558L174.121 64.1728L172.937 62.1089L171.752 60.045L169.892 58.8188L168.032 57.5925L166.55 57.3026L165.067 57.0131L162.946 56.9972L160.824 56.981L158.435 57.5851L156.047 58.1892L154.634 57.7197L153.221 57.2498L152.598 57.4907L151.975 57.7315L151.454 57.2959L150.933 56.8608L148.663 56.8272L146.392 56.7936L145.486 56.1497L144.581 55.5057H143.381H142.181V54.9949V54.4841L141.265 53.88L140.35 53.2759V52.3624V51.4488H139.984H139.617V50.5268V49.6048H140.167H140.716V48.8672V48.1296H140.167H139.617V47.7608V47.392L138.977 47.406L138.336 47.42L137.878 47.9437ZM192.595 61.9758L192.356 63.4351L192.352 64.754L192.348 66.0725L191.524 66.8463L190.7 67.62L187.958 67.8889L185.215 68.1581L185.944 68.4447L186.672 68.7309L188.714 68.7571L190.756 68.7829L191.552 69.6363L192.348 70.4901V71.9874V73.4852L192.583 74.6676L192.818 75.8496L193.127 75.3591L193.435 74.8682L193.441 72.7074L193.447 70.5465L194.271 69.671L195.094 68.7958L197.108 68.7633L199.122 68.7309L199.855 68.4388L200.587 68.1467L197.845 67.8653L195.102 67.5839L194.281 66.8002L193.459 66.0168L193.427 63.9884L193.395 61.9599L193.115 61.2381L192.835 60.5168L192.595 61.9758ZM44.0432 69.0492V69.7949L45.4164 70.0125L46.7896 70.2297L54.2199 70.6715L61.6501 71.113L62.05 70.7103L62.4499 70.3075L62.251 69.7868L62.0526 69.2656L57.9 69.0174L53.7471 68.7689L48.8952 68.5361L44.0432 68.3034V69.0492ZM65.0359 70.1058L64.8092 70.7014L65.2809 70.995L65.7525 71.2886L72.5665 71.529L79.3801 71.7699L81.3941 71.8436L83.4081 71.9177V71.1801V70.4425L80.1124 70.2072L76.8168 69.9715L71.0398 69.741L65.2629 69.5102L65.0359 70.1058ZM85.9146 71.196L85.6979 71.7651L85.9527 72.0221L86.208 72.2788L89.2022 72.5248L92.1965 72.7704L95.7668 73.0422L99.3371 73.3141V72.7299V72.1457L99.0255 71.9517L98.7143 71.7581L93.1153 71.1923L87.5167 70.6269H86.8242H86.1314L85.9146 71.196ZM110.326 80.6578L109.962 81.5068L104.077 99.7001L98.1928 117.894L97.9936 118.417L97.794 118.941H100.184H102.575L102.829 117.742L103.083 116.544L104.846 111.011L106.609 105.479L109.409 96.4435L112.209 87.4077L112.489 87.1156L112.77 86.8235L113.599 89.6973L114.429 92.571L116.899 100.5L119.369 108.43L120.961 113.685L122.554 118.941H124.824H127.094L125.487 113.87L123.881 108.799L119.189 94.4151L114.497 80.0315L112.594 79.9202L110.691 79.8088L110.326 80.6578ZM142.547 80.1721L141.631 80.4734L139.984 81.3154L138.336 82.1574L136.808 83.7764L135.281 85.3951L134.525 86.9685L133.769 88.5414L133.404 92.0315L133.039 95.5215L133.036 99.5784L133.032 103.635L133.404 106.955L133.776 110.274L134.69 112.17L135.604 114.066L137.272 115.615L138.94 117.163L141.018 118.131L143.096 119.1L146.591 119.109L150.085 119.117L152.513 117.914L154.94 116.71L156.792 114.67L158.643 112.629L159.24 110.714L159.837 108.799L160.026 101.783L160.215 94.7673L159.778 91.4591L159.341 88.1509L158.371 86.3574L157.402 84.5638L155.801 83.1447L154.201 81.7258L152.493 80.8883L150.786 80.0511L147.124 79.9611L143.462 79.8707L142.547 80.1721ZM164.579 80.3686L164.701 80.9266L170.926 99.941L177.151 118.955L178.953 118.856L180.756 118.756L181.215 117.281L181.673 115.806L187.377 98.4207L193.08 81.0354V80.4413V79.8471H190.965H188.849L184.893 92.2944L180.937 104.742L179.92 107.877L178.903 111.011L176.804 104.373L174.706 97.7344L171.858 88.883L169.011 80.0315L166.734 79.9209L164.457 79.8103L164.579 80.3686ZM143.995 84.0195L142.33 84.4893L140.983 85.5246L139.635 86.5595L138.62 88.6432L137.603 90.727V99.0252V107.323L138.098 109.036L138.592 110.749L139.69 112.09L140.787 113.43L142.263 114.188L143.739 114.947L145.665 115.147L147.592 115.348L149.619 114.705L151.648 114.062L152.83 112.906L154.012 111.749L154.779 110.089L155.547 108.43V99.394V90.3582L154.961 89.0674L154.376 87.7765L153.326 86.5218L152.275 85.2672L150.798 84.6099L149.321 83.9527L147.49 83.751L145.66 83.5492L143.995 84.0195ZM46.9031 86.3238L46.7047 86.6701L45.7116 89.805L44.7185 92.9399L44.3999 93.9541L44.0813 94.9683H46.9533H49.8253L49.0948 92.6632L48.3642 90.3582L47.7329 88.1678L47.1016 85.9771L46.9031 86.3238ZM78.1413 90.8627L76.6143 95.6963L76.4191 96.209L76.2236 96.722L78.3511 96.9625L80.4786 97.2026L81.9024 97.4172L83.3261 97.6318L83.1331 96.7611L82.9405 95.8903L81.5753 91.4646L80.2102 87.0389L79.9392 86.534L79.6683 86.0291L78.1413 90.8627ZM193.459 86.8302L193.08 87.5438V87.9366V88.3297H193.482H193.883L194.855 89.0043L195.827 89.6792L197.841 90.4622L199.855 91.2456L202.882 92.0599L205.908 92.8742L208.558 95.6425L211.207 98.4104L212.084 99.2716L212.962 100.132L214.381 100.517L215.801 100.902L216.159 100.68L216.516 100.457V99.8148V99.1727L216.077 98.7302L215.637 98.2876H214.959H214.281L210.547 94.4818L206.812 90.6761L203.334 89.8459L199.855 89.0161L196.974 87.5663L194.094 86.1169H193.966H193.838L193.459 86.8302ZM20.2412 96.8105L11.2697 97.0823L7.69171 97.5264L4.11335 97.97L2.56512 98.4207L1.01653 98.8714L0.909969 102.13L0.803409 105.389L1.64234 105.158L2.48127 104.927L7.24167 104.381L12.0021 103.836L21.0509 103.459L30.1 103.082H33.8812H37.6628L38.646 100.06L39.6296 97.0388L39.548 96.9706L39.4659 96.9023L34.3393 96.7201L29.2128 96.5383L20.2412 96.8105ZM42.5203 99.8425L41.6121 102.898L43.2856 103.142L44.9587 103.386L48.7366 103.418L52.5149 103.451L52.3084 102.805L52.1022 102.16L51.2769 99.5784L50.4511 96.9968L46.9398 96.892L43.4281 96.7869L42.5203 99.8425ZM54.3686 97.5946L54.5553 98.1032L55.3865 100.685L56.2182 103.267L56.4474 103.496L56.6766 103.726L63.3309 103.944L69.9849 104.162L70.9256 101.344L71.8663 98.5266L71.7129 98.3717L71.5595 98.2171L67.5966 97.9114L63.6341 97.6053L58.9078 97.3457L54.1818 97.0856L54.3686 97.5946ZM74.843 101.447L74.0286 104.269L74.1411 104.352L74.2535 104.433L79.9293 105.002L85.6052 105.572L85.729 105.462L85.8531 105.353L84.9563 102.465L84.0599 99.5784L82.4524 99.352L80.8448 99.1259L78.2511 98.8747L75.6574 98.6239L74.843 101.447ZM88.0722 100.574L88.252 101.054L89.0979 103.451L89.9438 105.848L89.9822 105.92L90.0207 105.992L92.5733 106.388L95.126 106.783L96.133 106.99L97.14 107.198V104.8V102.402L95.9499 102.013L94.7598 101.625L92.1965 101.056L89.6332 100.488L88.7632 100.291L87.8928 100.094L88.0722 100.574ZM14.5654 105.918L12.0021 106.027L7.88432 106.385L3.76658 106.742L3.03238 107.138L2.29818 107.534V113.431V119.328L3.25978 119.696L4.22174 120.065L7.92863 120.596L11.6359 121.129L18.2272 121.687L24.8185 122.247L35.2548 122.623L45.6911 123H54.2964H62.9018L72.4226 122.601L81.9434 122.201L87.253 121.523L92.5627 120.844L94.0275 120.353L95.4922 119.862L95.7024 114.699L95.9122 109.536L95.4208 109.122L94.9294 108.708L93.0626 108.458L91.1958 108.209L91.0112 108.394L90.8266 108.58L92.3353 113.356L93.8444 118.132V118.352V118.572H91.8838H89.9236L88.6109 114.423L87.2981 110.274L87.0502 109.25L86.8026 108.226L86.1754 107.888L85.5481 107.55L79.361 107.181L73.1736 106.813L73.1443 106.884L73.1146 106.955L71.3954 112.331L69.6762 117.707V118.139V118.572H67.5054H65.3351L67.3179 112.605L69.3008 106.638L69.2141 106.553L69.1269 106.467L63.176 106.342L57.2252 106.217H57.2259L59.2 112.412L61.1737 118.606L59.1388 118.497L57.1043 118.388L55.1375 112.21L53.1708 106.033H51.4109H49.651L45.2304 105.793L40.8095 105.554L38.7358 112.063L36.6617 118.572H34.6766H32.6915V118.476V118.38L34.7055 112.201L36.7195 106.022V105.843V105.664L26.9241 105.736L17.1287 105.808L14.5654 105.918Z" fill="white"/>
</svg>
