<svg width="247" height="299" viewBox="0 0 247 299" fill="none" xmlns="http://www.w3.org/2000/svg">
<path fill-rule="evenodd" clip-rule="evenodd" d="M164.667 32.8114V81.5455H213.872L164.667 32.8114ZM219.556 108.727H164.667C149.51 108.727 137.222 96.5576 137.222 81.5455V27.1818H27.4444V271.818H219.556V108.727ZM27.4444 0H170.351L247 75.9159V271.818C247 286.83 234.713 299 219.556 299H27.4444C12.2873 299 0 286.83 0 271.818V27.1818C0 12.1697 12.2873 0 27.4444 0ZM109.778 184.643V122.318H137.222V184.643L154.964 167.072L174.37 186.292L123.5 236.675L72.6303 186.292L92.0364 167.072L109.778 184.643Z" fill="white"/>
</svg>
