<svg width="780" height="464" viewBox="0 0 780 464" fill="none" xmlns="http://www.w3.org/2000/svg">
<path d="M394.194 32.1565C396.858 33.2777 399.943 32.3622 401.562 29.967C403.181 27.5719 402.885 24.3673 400.855 22.3139C398.822 20.2571 395.624 19.922 393.209 21.5111C390.797 23.1001 389.842 26.1753 390.93 28.8524C391.533 30.3452 392.708 31.5362 394.194 32.1565Z" fill="white" fill-opacity="0.2"/>
<path d="M600.102 32.0868C603.148 32.0868 605.891 30.2523 607.056 27.4425C608.22 24.6293 607.576 21.3949 605.423 19.2419C603.27 17.0923 600.036 16.4487 597.223 17.6131C594.413 18.7775 592.579 21.521 592.579 24.563C592.582 28.7163 595.949 32.0835 600.102 32.0868Z" fill="white" fill-opacity="0.2"/>
<path d="M74.0476 212.034C74.0476 216.187 70.6771 219.558 66.5238 219.558C62.3672 219.558 59 216.187 59 212.034C59 207.881 62.3671 204.51 66.5238 204.51C70.6771 204.51 74.0476 207.881 74.0476 212.034Z" fill="white" fill-opacity="0.2"/>
<path d="M465.526 326.51C462.481 326.51 459.737 328.345 458.573 331.155C457.408 333.968 458.052 337.202 460.205 339.355C462.358 341.505 465.592 342.148 468.405 340.984C471.215 339.82 473.05 337.076 473.05 334.034C473.043 329.881 469.679 326.514 465.526 326.51Z" fill="white" fill-opacity="0.2"/>
<path d="M772.678 151.038C775.72 151.038 778.463 149.207 779.628 146.394C780.792 143.584 780.149 140.346 777.999 138.193C775.846 136.044 772.608 135.4 769.798 136.565C766.985 137.729 765.154 140.473 765.154 143.515C765.157 147.668 768.525 151.035 772.678 151.038Z" fill="white" fill-opacity="0.2"/>
<path d="M470.526 170C467.481 170 464.737 171.835 463.573 174.644C462.408 177.457 463.052 180.692 465.205 182.845C467.358 184.994 470.592 185.638 473.406 184.474C476.215 183.309 478.05 180.566 478.05 177.524C478.043 173.37 474.679 170.003 470.526 170Z" fill="white" fill-opacity="0.2"/>
<path d="M698.505 272.132C699.261 274.412 701.394 275.947 703.796 275.947C706.194 275.947 708.327 274.412 709.084 272.132C711.247 265.654 716.319 260.565 722.788 258.379C725.061 257.619 726.593 255.49 726.593 253.094C726.593 250.696 725.061 248.569 722.788 247.81C716.319 245.624 711.247 240.535 709.084 234.062C708.328 231.783 706.194 230.244 703.796 230.244C701.394 230.244 699.261 231.783 698.505 234.062C696.342 240.534 691.27 245.623 684.8 247.81C682.528 248.569 680.995 250.696 680.995 253.094C680.995 255.489 682.528 257.619 684.8 258.379C691.269 260.565 696.342 265.654 698.505 272.132ZM703.796 247.424C705.448 249.534 707.349 251.442 709.462 253.094C707.349 254.749 705.448 256.653 703.796 258.767C702.144 256.653 700.243 254.749 698.133 253.094C700.243 251.442 702.144 249.538 703.796 247.424Z" fill="white" fill-opacity="0.2"/>
<path d="M295.805 252.135C302.274 254.318 307.346 259.407 309.509 265.883C310.266 268.162 312.395 269.698 314.797 269.698C317.199 269.698 319.329 268.162 320.085 265.883C322.251 259.407 327.324 254.319 333.793 252.135C336.065 251.372 337.598 249.246 337.598 246.847C337.598 244.452 336.065 242.322 333.793 241.563C327.324 239.38 322.252 234.291 320.085 227.815C319.329 225.536 317.199 224 314.797 224C312.395 224 310.266 225.536 309.509 227.815C307.343 234.291 302.274 239.379 295.805 241.563C293.533 242.322 292 244.452 292 246.847C292 249.246 293.533 251.372 295.805 252.132V252.135ZM314.797 241.175C316.449 243.285 318.35 245.189 320.46 246.844C318.35 248.5 316.449 250.404 314.797 252.517C313.145 250.404 311.244 248.5 309.131 246.844C311.244 245.192 313.145 243.288 314.797 241.178V241.175Z" fill="white" fill-opacity="0.2"/>
<path d="M221.513 132.393C222.269 134.672 224.399 136.208 226.801 136.208C229.203 136.208 231.332 134.672 232.089 132.393C234.252 125.917 239.324 120.829 245.793 118.645C248.065 117.886 249.598 115.756 249.598 113.357C249.598 110.962 248.065 108.833 245.793 108.073C239.324 105.89 234.252 100.801 232.089 94.3252C231.332 92.0462 229.203 90.5103 226.801 90.5103C224.399 90.5103 222.269 92.0462 221.513 94.3252C219.346 100.801 214.274 105.889 207.805 108.073C205.533 108.833 204 110.962 204 113.357C204 115.756 205.533 117.886 207.805 118.645C214.274 120.828 219.346 125.917 221.513 132.393ZM226.801 107.685C228.449 109.798 230.35 111.702 232.46 113.358C230.35 115.013 228.449 116.917 226.801 119.027C225.149 116.917 223.248 115.013 221.138 113.358C223.248 111.702 225.149 109.798 226.801 107.685Z" fill="white" fill-opacity="0.2"/>
<path d="M461.793 460.073C455.324 457.887 450.255 452.798 448.089 446.325C447.329 444.046 445.199 442.51 442.801 442.51C440.399 442.51 438.269 444.046 437.513 446.325C435.346 452.797 430.274 457.886 423.805 460.073C421.533 460.833 420 462.959 420 465.357C420 467.753 421.533 469.882 423.805 470.642C430.274 472.828 435.346 477.914 437.513 484.39C438.269 486.669 440.399 488.205 442.801 488.205C445.199 488.205 447.329 486.669 448.089 484.39C450.252 477.914 455.324 472.829 461.793 470.642C464.065 469.882 465.598 467.753 465.598 465.357C465.598 462.959 464.065 460.833 461.793 460.073ZM442.801 471.033C441.149 468.92 439.245 467.013 437.135 465.361C439.245 463.705 441.149 461.801 442.801 459.688C444.45 461.801 446.354 463.705 448.461 465.361C446.354 467.013 444.453 468.917 442.801 471.03V471.033Z" fill="white" fill-opacity="0.2"/>
<path d="M607.483 155.519C607.588 155.909 607.818 156.253 608.14 156.501L608.4 156.703C609.221 157.339 610.415 157.194 611.066 156.379C611.717 155.564 611.58 154.388 610.759 153.752L610.499 153.55C609.858 153.056 608.965 153.023 608.281 153.469C607.598 153.916 607.278 154.741 607.487 155.518L607.483 155.519Z" fill="white" fill-opacity="0.2"/>
<path d="M620.406 145.793C620.512 146.186 620.754 146.53 621.095 146.769L622.545 147.792L622.544 147.792C623.385 148.385 624.594 148.204 625.244 147.389C625.896 146.572 625.741 145.431 624.9 144.839L623.45 143.816L623.451 143.815C622.801 143.357 621.905 143.349 621.217 143.796C620.531 144.242 620.206 145.045 620.406 145.793Z" fill="white" fill-opacity="0.2"/>
<path d="M580.796 128.671C580.89 129.459 581.039 130.24 581.245 131.007C582.157 134.41 584.145 137.426 586.91 139.6L604.567 153.559L604.568 153.558C604.96 153.877 605.463 154.024 605.965 153.968C606.467 153.913 606.924 153.658 607.236 153.26C607.548 152.862 607.688 152.356 607.624 151.853C607.561 151.351 607.3 150.894 606.899 150.585L589.242 136.626C586.63 134.561 584.939 131.539 584.543 128.227C584.146 124.915 585.077 121.583 587.131 118.965C589.183 116.346 592.191 114.656 595.49 114.265C598.79 113.875 602.111 114.816 604.725 116.881L627.397 134.806C627.791 135.121 628.292 135.264 628.79 135.208C629.29 135.15 629.745 134.895 630.055 134.499C630.365 134.103 630.505 133.6 630.444 133.099C630.382 132.598 630.126 132.143 629.729 131.833L607.056 113.908C603.656 111.22 599.334 109.996 595.041 110.504C590.747 111.013 586.835 113.212 584.163 116.619C581.492 120.025 580.281 124.36 580.796 128.671L580.796 128.671Z" fill="white" fill-opacity="0.2"/>
<path d="M623.68 138.692C623.786 139.092 624.02 139.445 624.342 139.691L627.727 142.293L627.726 142.293C628.498 142.887 629.564 142.724 630.107 141.927C630.649 141.132 630.463 140.005 629.69 139.41L626.307 136.809C625.715 136.353 624.923 136.331 624.332 136.754C623.742 137.177 623.481 137.954 623.68 138.692Z" fill="white" fill-opacity="0.2"/>
<path d="M622.028 134.064L618.821 131.585C618.013 130.973 616.911 131.149 616.349 131.978C615.788 132.805 615.977 133.979 616.774 134.608L619.981 137.087L619.979 137.086C620.788 137.711 621.902 137.542 622.468 136.707C623.033 135.872 622.836 134.689 622.028 134.064Z" fill="white" fill-opacity="0.2"/>
<path d="M623.271 156.485C623.386 156.914 623.658 157.287 624.041 157.535L626.521 159.159L626.52 159.159C626.95 159.446 627.489 159.556 628.015 159.462C628.542 159.369 629.014 159.081 629.327 158.661C629.638 158.241 629.764 157.725 629.676 157.229C629.586 156.733 629.291 156.296 628.855 156.018L626.374 154.394C625.693 153.948 624.778 153.963 624.084 154.431C623.391 154.898 623.066 155.719 623.271 156.485Z" fill="white" fill-opacity="0.2"/>
<path d="M610.752 148.398C610.864 148.816 611.136 149.176 611.522 149.414L620.061 154.697C620.496 154.973 621.044 155.072 621.583 154.974C622.122 154.876 622.607 154.588 622.932 154.174C623.255 153.762 623.389 153.256 623.305 152.773C623.221 152.289 622.926 151.867 622.484 151.601L613.945 146.318C613.256 145.892 612.322 145.917 611.608 146.382C610.894 146.848 610.552 147.653 610.752 148.398Z" fill="white" fill-opacity="0.2"/>
<path d="M605.607 144.653C605.721 145.083 605.99 145.456 606.366 145.707L607.736 146.624C608.617 147.201 609.828 146.975 610.452 146.118C611.076 145.261 610.877 144.093 610.01 143.498L608.64 142.582C607.97 142.134 607.073 142.143 606.395 142.606C605.715 143.07 605.401 143.888 605.607 144.654L605.607 144.653Z" fill="white" fill-opacity="0.2"/>
<path d="M625.903 148.035C625.6 148.439 625.47 148.948 625.541 149.45C625.613 149.95 625.88 150.404 626.284 150.707L635.604 157.715L635.604 157.716C636.446 158.349 637.641 158.178 638.273 157.336C638.904 156.493 638.734 155.296 637.891 154.662L628.572 147.655C628.167 147.35 627.659 147.219 627.159 147.291C626.658 147.362 626.207 147.63 625.903 148.035Z" fill="white" fill-opacity="0.2"/>
<path d="M608.072 136.986L616.742 144.133C617.536 144.786 618.631 144.639 619.188 143.804C619.746 142.968 619.555 141.761 618.761 141.106L610.091 133.959C609.297 133.318 608.212 133.469 607.659 134.299C607.105 135.129 607.289 136.327 608.072 136.986Z" fill="white" fill-opacity="0.2"/>
<path d="M727.608 13.2012C730.275 13.2046 732.684 11.599 733.706 9.1341C734.727 6.66925 734.163 3.82962 732.276 1.94539C730.388 0.0577718 727.552 -0.506128 725.087 0.515602C722.622 1.53733 721.017 3.94248 721.017 6.61294C721.02 10.2521 723.969 13.2012 727.608 13.2012Z" fill="white" fill-opacity="0.2"/>
<path d="M607.35 124.114C606.63 121.425 604.871 119.131 602.458 117.739C600.047 116.347 597.181 115.969 594.491 116.69C591.802 117.41 589.508 119.17 588.115 121.582C586.723 123.994 586.345 126.86 587.066 129.549C587.787 132.24 589.547 134.533 591.959 135.926C594.371 137.318 597.237 137.695 599.926 136.974C602.614 136.251 604.906 134.491 606.298 132.08C607.689 129.669 608.069 126.804 607.35 124.114ZM590.779 128.554C590.322 126.849 590.562 125.032 591.444 123.502C592.327 121.973 593.782 120.856 595.487 120.399C597.193 119.942 599.01 120.182 600.54 121.065C602.07 121.949 603.185 123.403 603.642 125.108C604.099 126.814 603.861 128.631 602.977 130.161C602.094 131.69 600.64 132.806 598.934 133.263C597.228 133.719 595.413 133.478 593.883 132.596C592.354 131.713 591.238 130.26 590.779 128.554Z" fill="white" fill-opacity="0.2"/>
<path d="M594.146 125.064C593.937 124.282 593.278 123.704 592.476 123.599C591.674 123.493 590.887 123.881 590.483 124.581C590.078 125.282 590.136 126.158 590.628 126.8C591.12 127.441 591.951 127.723 592.732 127.513C593.798 127.227 594.431 126.131 594.146 125.064Z" fill="white" fill-opacity="0.2"/>
<path d="M598.269 124.995C599.05 124.785 599.629 124.126 599.734 123.324C599.84 122.522 599.452 121.736 598.752 121.331C598.052 120.927 597.177 120.983 596.535 121.475C595.892 121.967 595.611 122.797 595.819 123.579C596.105 124.646 597.202 125.279 598.269 124.995Z" fill="white" fill-opacity="0.2"/>
<path d="M595.181 128.928C594.4 129.137 593.823 129.796 593.716 130.598C593.611 131.4 593.999 132.187 594.699 132.591C595.398 132.996 596.274 132.939 596.915 132.447C597.557 131.956 597.84 131.125 597.632 130.343C597.346 129.276 596.249 128.643 595.181 128.928Z" fill="white" fill-opacity="0.2"/>
<path d="M122.104 413.644H122.014C118.956 413.673 116.484 416.142 116.441 419.2C116.275 431.249 111.455 442.767 102.982 451.336C94.513 459.908 83.0547 464.868 71.0098 465.179C69.5734 465.169 68.1934 465.737 67.1783 466.755C66.1665 467.773 65.6058 469.157 65.6224 470.597C65.639 472.033 66.2361 473.403 67.2745 474.395C68.3095 475.39 69.7061 475.924 71.1425 475.878H71.2752C86.1201 475.798 100.315 469.787 110.706 459.188C121.335 448.592 127.395 434.259 127.595 419.254C127.625 417.778 127.057 416.352 126.026 415.297C124.994 414.242 123.581 413.648 122.104 413.645L122.104 413.644Z" fill="white" fill-opacity="0.2"/>
<path d="M96.9662 382.204C97.7093 382.948 98.4325 383.721 99.1125 384.503C101.136 386.822 104.659 387.061 106.978 385.034C109.294 383.011 109.532 379.491 107.509 377.172C106.663 376.207 105.77 375.248 104.858 374.332C94.0498 363.487 79.3705 357.394 64.0611 357.394C48.7518 357.394 34.0725 363.488 23.2675 374.332C12.466 385.193 6.40234 399.89 6.40234 415.206C6.40234 430.525 12.4665 445.222 23.2675 456.083C25.4404 458.262 28.9701 458.269 31.1496 456.096C33.3291 453.92 33.3357 450.39 31.1629 448.21C22.4411 439.439 17.5452 427.576 17.5452 415.206C17.5452 402.839 22.4416 390.973 31.1629 382.205C39.8778 373.457 51.7172 368.541 64.0644 368.541C76.4116 368.541 88.2544 373.457 96.9693 382.205L96.9662 382.204Z" fill="white" fill-opacity="0.2"/>
<path d="M93.0935 434.968C93.9395 435.114 94.7953 435.19 95.6545 435.197C100.823 435.194 105.67 432.669 108.639 428.436C111.608 424.203 112.328 418.786 110.569 413.926C129.018 388.289 133.114 368.176 122.054 357.093C118.288 353.318 111.278 349.327 99.2769 351.729V351.725C96.2614 352.329 94.3041 355.265 94.908 358.284C95.5117 361.303 98.4476 363.26 101.466 362.656C110.141 360.921 113.17 363.963 114.165 364.962C120.405 371.215 116.116 386.425 103.032 405.274C98.7065 402.995 93.571 402.84 89.1158 404.853C84.6606 406.867 81.383 410.821 80.2353 415.572C79.0841 420.325 80.1921 425.341 83.2341 429.166C82.3716 430.062 81.5057 430.958 80.6333 431.833C58.8883 453.625 35.2682 468.271 21.856 468.271C18.4425 468.271 15.8582 467.342 13.9607 465.445C10.9584 462.436 10.3447 457.447 12.1361 450.616V450.613C12.9157 447.634 11.1343 444.588 8.15529 443.809C5.17961 443.029 2.1309 444.811 1.35137 447.79C-2.21479 461.404 1.9485 469.187 6.06869 473.317C10.1059 477.368 15.4172 479.418 21.8596 479.418C41.7999 479.418 69.3707 458.9 88.5255 439.702C90.0648 438.153 91.5875 436.567 93.0935 434.968ZM95.6545 414.563C97.5753 414.553 99.3103 415.701 100.053 417.473C100.796 419.244 100.398 421.291 99.0416 422.651C97.688 424.015 95.6446 424.426 93.8698 423.693C92.0951 422.96 90.934 421.228 90.934 419.307C90.9406 416.7 93.0438 414.583 95.6545 414.563Z" fill="white" fill-opacity="0.2"/>
<path d="M29.6376 430.034C27.0102 431.636 26.1809 435.067 27.7865 437.694L28.0088 438.055H28.0121C28.785 439.323 30.0357 440.225 31.4787 440.567C32.9251 440.908 34.4445 440.663 35.7051 439.877C36.9657 439.094 37.8614 437.84 38.1964 436.393C38.5282 434.944 38.2694 433.424 37.4766 432.17L37.3007 431.882H37.2974C35.6952 429.258 32.2649 428.428 29.6376 430.034Z" fill="white" fill-opacity="0.2"/>
<path d="M614.113 343.871C607.956 346.386 603.05 351.239 600.472 357.37C597.895 363.501 597.858 370.401 600.369 376.558C602.881 382.715 607.734 387.621 613.865 390.198C619.995 392.779 626.896 392.816 633.053 390.304C639.21 387.793 644.119 382.94 646.697 376.809C649.274 370.678 649.311 363.775 646.8 357.618C644.325 351.431 639.475 346.494 633.331 343.91C627.187 341.329 620.267 341.313 614.114 343.87L614.113 343.871ZM636.423 372.48C634.747 376.475 631.307 379.457 627.117 380.555C622.931 381.656 618.469 380.744 615.049 378.09C611.629 375.436 609.635 371.343 609.658 367.013C609.681 362.681 611.715 358.611 615.165 355.99C618.612 353.373 623.083 352.51 627.26 353.651C631.436 354.793 634.843 357.815 636.478 361.822C637.885 365.242 637.865 369.081 636.422 372.488L636.423 372.48Z" fill="white" fill-opacity="0.2"/>
<path d="M640.856 325.994C628.08 320.624 613.534 321.499 601.495 328.363C589.459 335.227 581.295 347.299 579.414 361.029C577.53 374.757 582.141 388.583 591.888 398.433C601.635 408.286 615.408 413.042 629.155 411.307C642.906 409.572 655.064 401.541 662.057 389.579C669.05 377.613 670.082 363.079 664.847 350.248C660.408 339.284 651.77 330.55 640.856 325.994ZM654.393 380.038V380.041C650.366 389.618 642.112 396.781 632.057 399.418C622.006 402.055 611.301 399.866 603.09 393.496C594.88 387.127 590.096 377.301 590.153 366.907C590.206 356.514 595.092 346.741 603.369 340.457C611.649 334.174 622.378 332.101 632.403 334.841C642.425 337.584 650.602 344.833 654.53 354.457C657.904 362.661 657.854 371.873 654.394 380.04L654.393 380.038Z" fill="white" fill-opacity="0.2"/>
<path d="M497.696 57.735C499.099 54.1356 499.152 50.168 497.849 46.5331C496.545 42.8999 493.968 39.8333 490.572 37.8801C487.179 35.9252 483.187 35.2091 479.304 35.8573C473.157 30.7458 468.616 29.2865 465.797 31.5334C464.896 32.2512 462.152 34.4369 465.976 42.5706C466.311 43.2833 466.689 44.0215 467.099 44.7767C466.879 45.2179 466.674 45.671 466.493 46.1376V46.1393C464.551 51.1557 465.25 56.7864 468.364 61.202C471.48 65.6175 476.615 68.2563 482.102 68.2632C483.639 68.2615 485.17 68.0494 486.649 67.6337C486.845 67.7813 487.043 67.9255 487.238 68.0647C490.451 70.3658 493.101 71.5096 495.248 71.5096C496.298 71.5266 497.326 71.2075 498.175 70.6017C501.441 68.2684 499.768 62.848 497.473 58.2695C497.548 58.093 497.624 57.9165 497.696 57.7349L497.696 57.735ZM469.918 36.4952C471.006 36.9771 472.039 37.5711 472.999 38.2651C472.315 38.6996 471.666 39.1798 471.055 39.7059C470.564 38.6775 470.184 37.6016 469.918 36.4969V36.4952ZM478.236 61.8569C476.084 61.0542 474.247 59.6033 472.992 57.7128C471.737 55.824 471.128 53.5941 471.253 51.344C472.464 53.041 473.792 54.7652 475.214 56.4673C477.012 58.6224 478.864 60.6419 480.706 62.4577C479.862 62.3524 479.032 62.1522 478.236 61.8603L478.236 61.8569ZM487.654 61.0457C484.795 58.529 482.146 55.7917 479.732 52.861C477.623 50.3512 475.683 47.7108 473.926 44.953C475.993 42.6502 478.972 41.3282 482.105 41.3214C485.295 41.3231 488.324 42.696 490.385 45.0769C492.447 47.4578 493.332 50.6059 492.805 53.6826C492.279 56.7592 490.395 59.4522 487.653 61.0492L487.654 61.0457ZM492.525 64.679C492.867 64.4126 493.197 64.1326 493.514 63.8407C493.728 64.438 493.903 64.9963 494.021 65.4664C493.506 65.2356 493.006 64.9743 492.525 64.6807V64.679Z" fill="white" fill-opacity="0.2"/>
<path d="M133.646 94.2959C144.693 94.2959 155.285 89.907 163.098 82.0981C170.907 74.2891 175.296 63.6933 175.296 52.6496C175.296 41.6026 170.907 31.0108 163.098 23.1977C155.286 15.3886 144.693 11 133.646 11C122.603 11 112.007 15.3889 104.198 23.1977C96.3886 31.0101 92 41.6026 92 52.6496C92.0133 63.6899 96.4055 74.2757 104.211 82.0845C112.02 89.8903 122.606 94.2823 133.646 94.2959ZM105.82 39.8939H125.229C128.308 39.8939 130.803 37.3993 130.803 34.3208C130.803 31.2422 128.308 28.7476 125.229 28.7476H114.362C119.62 25.0321 126.338 22.0034 133.645 22.0034C143.203 22.0465 152.19 26.5482 157.952 34.1748C163.711 41.8014 165.582 51.6769 163.007 60.8828C160.436 70.0852 153.716 77.5628 144.835 81.0991C135.958 84.6321 125.939 83.8226 117.742 78.9063H128.835C131.914 78.9063 134.409 76.4117 134.409 73.3331C134.409 70.2546 131.914 67.76 128.835 67.76H107.193C107.14 67.76 107.087 67.4946 107.037 67.4979C105.753 65.2587 104.805 62.8436 104.214 60.329H119.219C122.297 60.329 124.792 57.8344 124.792 54.7559C124.792 51.6773 122.297 49.1827 119.219 49.1827H103.312C103.697 45.9814 104.539 42.8535 105.82 39.8939Z" fill="white" fill-opacity="0.2"/>
</svg>
