<svg width="809" height="471" viewBox="0 0 809 471" fill="none" xmlns="http://www.w3.org/2000/svg">
<path d="M422.194 10.6462C424.858 11.7675 427.943 10.8519 429.562 8.45677C431.181 6.06165 430.885 2.857 428.855 0.803606C426.822 -1.25319 423.624 -1.58821 421.209 0.000805378C418.797 1.58983 417.842 4.66504 418.93 7.34212C419.533 8.83493 420.708 10.0259 422.194 10.6462Z" fill="white"/>
<path d="M628.102 10.5766C631.148 10.5766 633.891 8.74202 635.056 5.9322C636.22 3.11907 635.576 -0.115377 633.423 -2.2683C631.27 -4.41792 628.036 -5.06156 625.223 -3.89716C622.413 -2.73276 620.579 0.0107379 620.579 3.05274C620.582 7.20607 623.949 10.5732 628.102 10.5766Z" fill="white"/>
<path d="M293.047 254.523C293.047 251.481 291.215 248.737 288.402 247.573C285.592 246.409 282.355 247.052 280.205 249.202C278.052 251.355 277.408 254.589 278.573 257.402C279.737 260.212 282.481 262.047 285.523 262.047C289.676 262.043 293.043 258.676 293.047 254.523Z" fill="white"/>
<path d="M102.048 190.524C102.048 194.677 98.6771 198.048 94.5238 198.048C90.3672 198.048 87 194.677 87 190.524C87 186.37 90.3671 183 94.5238 183C98.6771 183 102.048 186.37 102.048 190.524Z" fill="white"/>
<path d="M733.523 455C730.481 455 727.737 456.835 726.573 459.644C725.409 462.458 726.052 465.692 728.202 467.845C730.355 469.998 733.593 470.641 736.402 469.477C739.212 468.313 741.047 465.569 741.047 462.524C741.043 458.37 737.676 455.007 733.523 455Z" fill="white"/>
<path d="M493.526 305C490.481 305 487.737 306.835 486.573 309.644C485.408 312.458 486.052 315.692 488.205 317.845C490.358 319.994 493.592 320.638 496.405 319.474C499.215 318.309 501.05 315.566 501.05 312.524C501.043 308.37 497.679 305.003 493.526 305Z" fill="white"/>
<path d="M800.678 129.528C803.72 129.528 806.463 127.697 807.628 124.884C808.792 122.074 808.149 118.836 805.999 116.683C803.846 114.534 800.608 113.89 797.798 115.054C794.985 116.219 793.154 118.962 793.154 122.004C793.157 126.158 796.525 129.525 800.678 129.528Z" fill="white"/>
<path d="M560.834 103.762C557.788 103.762 555.045 105.596 553.88 108.406C552.716 111.219 553.36 114.454 555.513 116.607C557.666 118.756 560.9 119.4 563.713 118.236C566.523 117.071 568.357 114.328 568.357 111.286C568.351 107.132 564.987 103.765 560.834 103.762Z" fill="white"/>
<path d="M726.505 250.622C727.261 252.901 729.394 254.437 731.796 254.437C734.194 254.437 736.327 252.901 737.084 250.622C739.247 244.143 744.319 239.055 750.788 236.869C753.061 236.109 754.593 233.979 754.593 231.584C754.593 229.186 753.061 227.059 750.788 226.3C744.319 224.113 739.247 219.025 737.084 212.552C736.328 210.273 734.194 208.734 731.796 208.734C729.394 208.734 727.261 210.273 726.505 212.552C724.342 219.024 719.27 224.113 712.8 226.3C710.528 227.059 708.995 229.186 708.995 231.584C708.995 233.979 710.528 236.109 712.8 236.869C719.269 239.055 724.342 244.144 726.505 250.622ZM731.796 225.914C733.448 228.024 735.349 229.932 737.462 231.584C735.349 233.239 733.448 235.143 731.796 237.256C730.144 235.143 728.243 233.239 726.133 231.584C728.243 229.932 730.144 228.027 731.796 225.914Z" fill="white"/>
<path d="M398.805 188.135C405.274 190.318 410.346 195.407 412.509 201.883C413.266 204.162 415.395 205.698 417.797 205.698C420.199 205.698 422.329 204.162 423.085 201.883C425.251 195.407 430.324 190.319 436.793 188.135C439.065 187.372 440.598 185.246 440.598 182.847C440.598 180.452 439.065 178.322 436.793 177.563C430.324 175.38 425.252 170.291 423.085 163.815C422.329 161.536 420.199 160 417.797 160C415.395 160 413.266 161.536 412.509 163.815C410.343 170.291 405.274 175.379 398.805 177.563C396.533 178.322 395 180.452 395 182.847C395 185.246 396.533 187.372 398.805 188.132V188.135ZM417.797 177.175C419.449 179.285 421.35 181.189 423.46 182.844C421.35 184.5 419.449 186.404 417.797 188.517C416.145 186.404 414.244 184.5 412.131 182.844C414.244 181.192 416.145 179.288 417.797 177.178V177.175Z" fill="white"/>
<path d="M249.513 110.883C250.269 113.162 252.399 114.698 254.801 114.698C257.203 114.698 259.332 113.162 260.089 110.883C262.252 104.407 267.324 99.3186 273.793 97.1351C276.065 96.3755 277.598 94.2457 277.598 91.8472C277.598 89.4521 276.065 87.3223 273.793 86.5626C267.324 84.3798 262.252 79.2909 260.089 72.815C259.332 70.536 257.203 69 254.801 69C252.399 69 250.269 70.536 249.513 72.815C247.346 79.2905 242.274 84.3792 235.805 86.5626C233.533 87.3223 232 89.452 232 91.8472C232 94.2457 233.533 96.3754 235.805 97.1351C242.274 99.318 247.346 104.407 249.513 110.883ZM254.801 86.1748C256.449 88.2879 258.35 90.1921 260.46 91.8475C258.35 93.5028 256.449 95.407 254.801 97.5169C253.149 95.407 251.248 93.5028 249.138 91.8475C251.248 90.1921 253.149 88.2879 254.801 86.1748Z" fill="white"/>
<path d="M489.793 438.563C483.324 436.377 478.255 431.288 476.089 424.815C475.329 422.536 473.199 421 470.801 421C468.399 421 466.269 422.536 465.513 424.815C463.346 431.287 458.274 436.376 451.805 438.563C449.533 439.322 448 441.449 448 443.847C448 446.242 449.533 448.372 451.805 449.132C458.274 451.318 463.346 456.404 465.513 462.879C466.269 465.158 468.399 466.694 470.801 466.694C473.199 466.694 475.329 465.158 476.089 462.879C478.252 456.404 483.324 451.319 489.793 449.132C492.065 448.372 493.598 446.242 493.598 443.847C493.598 441.449 492.065 439.322 489.793 438.563ZM470.801 449.523C469.149 447.41 467.245 445.502 465.135 443.85C467.245 442.195 469.149 440.291 470.801 438.178C472.45 440.291 474.354 442.195 476.461 443.85C474.354 445.502 472.453 447.407 470.801 449.52V449.523Z" fill="white"/>
<path d="M755.869 54C756.273 54 756.665 53.8666 756.988 53.6201L757.25 53.4211C758.077 52.7925 758.246 51.602 757.627 50.7619C757.009 49.9219 755.837 49.75 755.01 50.3787L754.748 50.5776C754.105 51.0683 753.842 51.9231 754.096 52.6987C754.35 53.4743 755.065 53.9966 755.869 53.9966V54Z" fill="white"/>
<path d="M749.819 39C750.226 39 750.621 38.8551 750.94 38.5872L752.303 37.4512V37.4524C753.094 36.7935 753.232 35.5794 752.613 34.7401C751.993 33.8996 750.85 33.7535 750.06 34.4124L748.697 35.5483V35.5472C748.086 36.0566 747.847 36.92 748.1 37.6996C748.353 38.478 749.044 39 749.819 39Z" fill="white"/>
<path d="M723.029 72.8293C723.815 72.9427 724.607 73 725.401 73C728.925 73 732.352 71.8603 735.168 69.7515L753.221 56.3096V56.3085C753.63 56.0121 753.903 55.564 753.978 55.0655C754.055 54.5658 753.926 54.0583 753.623 53.654C753.32 53.2498 752.867 52.9837 752.365 52.9152C751.863 52.8456 751.355 52.9803 750.952 53.2869L732.899 66.7299C730.228 68.7185 726.871 69.5696 723.57 69.0947C720.268 68.6208 717.291 66.859 715.293 64.1979C713.295 61.5378 712.44 58.195 712.917 54.9074C713.394 51.6187 715.163 48.6542 717.834 46.6644L741.016 29.4037C741.422 29.105 741.69 28.6581 741.765 28.1619C741.838 27.6644 741.709 27.1591 741.407 26.7572C741.105 26.3552 740.655 26.0891 740.156 26.0183C739.656 25.9487 739.15 26.079 738.747 26.3821L715.566 43.6428C712.089 46.231 709.788 50.0892 709.168 54.3674C708.548 58.6467 709.66 62.9944 712.259 66.4574C714.857 69.9192 718.732 72.211 723.029 72.8285L723.029 72.8293Z" fill="white"/>
<path d="M743.808 34C744.221 34.001 744.623 33.8662 744.944 33.619L748.333 31.0232V31.0242C749.106 30.4315 749.225 29.3596 748.596 28.6291C747.968 27.8996 746.831 27.7881 746.057 28.3808L742.669 30.9756C742.075 31.4295 741.848 32.1884 742.104 32.8682C742.361 33.5481 743.043 34.001 743.808 34Z" fill="white"/>
<path d="M738.91 34.3978L735.685 36.8539C734.885 37.4762 734.769 38.5862 735.425 39.3429C736.079 40.0995 737.261 40.2202 738.075 39.6138L741.3 37.1576L741.298 37.1587C742.112 36.5396 742.236 35.42 741.576 34.657C740.916 33.8951 739.722 33.7787 738.91 34.3978Z" fill="white"/>
<path d="M760.888 39C761.333 39 761.763 38.8341 762.102 38.5286L764.313 36.5526V36.5537C764.701 36.2125 764.946 35.7208 764.992 35.1886C765.038 34.6552 764.882 34.1242 764.557 33.7138C764.233 33.3045 763.767 33.0491 763.265 33.0061C762.763 32.9644 762.264 33.1362 761.882 33.4858L759.672 35.4619C759.065 36.0036 758.843 36.8915 759.115 37.6826C759.386 38.4737 760.095 39 760.888 39Z" fill="white"/>
<path d="M749.837 49C750.269 49 750.688 48.8302 751.018 48.5186L758.33 41.6377C758.709 41.2895 758.948 40.7861 758.992 40.24C759.037 39.6939 758.884 39.1502 758.568 38.7299C758.254 38.3109 757.8 38.0506 757.312 38.0066C756.822 37.9626 756.338 38.1386 755.967 38.4965L748.654 45.3775C748.064 45.9321 747.847 46.8411 748.111 47.6511C748.377 48.4611 749.065 49 749.837 49Z" fill="white"/>
<path d="M744.887 53C745.332 53.0011 745.762 52.8375 746.102 52.5394L747.342 51.4534C748.128 50.752 748.223 49.5234 747.557 48.6993C746.89 47.8752 745.711 47.7641 744.912 48.448L743.673 49.5339C743.066 50.0658 742.842 50.9344 743.114 51.7094C743.386 52.4856 744.095 53.0011 744.888 53L744.887 53Z" fill="white"/>
<path d="M753.407 34.2706C753.72 34.6676 754.178 34.9251 754.68 34.9864C755.183 35.0465 755.69 34.9058 756.087 34.5939L765.268 27.406H765.269C766.099 26.7559 766.243 25.558 765.593 24.7298C764.942 23.9017 763.742 23.7565 762.912 24.4065L753.731 31.5944C753.332 31.9063 753.074 32.3635 753.014 32.865C752.953 33.3675 753.095 33.8724 753.407 34.2706Z" fill="white"/>
<path d="M738.12 48.6341L747.267 42.1093C748.104 41.5119 748.245 40.4166 747.582 39.6615C746.919 38.9065 745.704 38.7789 744.866 39.3763L735.719 45.9011C734.894 46.5016 734.759 47.5896 735.418 48.3385C736.076 49.0883 737.281 49.2201 738.12 48.6341Z" fill="white"/>
<path d="M725.5 46C722.716 46 720.045 47.1055 718.076 49.0755C716.107 51.0443 715 53.7151 715 56.5C715 59.2839 716.107 61.9547 718.076 63.9245C720.045 65.8932 722.716 67 725.5 67C728.285 67 730.956 65.8933 732.926 63.9245C734.894 61.9546 736 59.284 736 56.5C735.998 53.7161 734.891 51.0464 732.922 49.0778C730.953 47.1102 728.284 46.0023 725.5 46ZM725.5 63.1562C723.735 63.1562 722.042 62.4542 720.792 61.2057C719.543 59.9572 718.841 58.2628 718.841 56.4976C718.841 54.7312 719.543 53.0381 720.792 51.7895C722.042 50.5399 723.735 49.839 725.5 49.839C727.266 49.839 728.96 50.5399 730.209 51.7895C731.458 53.038 732.159 54.7313 732.159 56.4976C732.157 58.2628 731.455 59.9548 730.207 61.2034C728.958 62.452 727.266 63.1539 725.5 63.1562Z" fill="white"/>
<path d="M723 59C722.191 59 721.462 59.4871 721.152 60.2345C720.843 60.9819 721.014 61.8422 721.586 62.4142C722.157 62.9862 723.019 63.1572 723.766 62.8477C724.513 62.5382 725 61.8087 725 60.9998C724.999 59.896 724.104 59.0011 723 59Z" fill="white"/>
<path d="M724 54.9996C724 54.1909 723.513 53.4616 722.766 53.1522C722.018 52.8428 721.158 53.0137 720.586 53.5856C720.015 54.1563 719.843 55.0163 720.152 55.7636C720.46 56.5119 721.19 56.9989 721.998 57C723.103 57 723.999 56.1042 724 54.9996Z" fill="white"/>
<path d="M727 59.0004C727 59.809 727.487 60.5373 728.234 60.8478C728.982 61.1571 729.842 60.9862 730.414 60.4144C730.985 59.8436 731.157 58.9836 730.848 58.2364C730.54 57.4892 729.81 57.0011 729.002 57C727.897 57 727.001 57.8957 727 59.0004Z" fill="white"/>
<path d="M311.104 388.644H311.014C307.956 388.673 305.484 391.142 305.441 394.2C305.275 406.249 300.455 417.767 291.982 426.336C283.513 434.908 272.055 439.868 260.01 440.179C258.573 440.169 257.193 440.737 256.178 441.755C255.166 442.774 254.606 444.157 254.622 445.597C254.639 447.033 255.236 448.403 256.274 449.395C257.309 450.39 258.706 450.924 260.142 450.878H260.275C275.12 450.798 289.315 444.787 299.706 434.189C310.335 423.592 316.395 409.259 316.595 394.254C316.625 392.778 316.057 391.352 315.026 390.297C313.994 389.242 312.581 388.648 311.104 388.645L311.104 388.644Z" fill="white"/>
<path d="M285.966 357.204C286.709 357.948 287.432 358.721 288.112 359.503C290.136 361.822 293.659 362.061 295.978 360.034C298.293 358.011 298.532 354.491 296.509 352.172C295.663 351.207 294.77 350.248 293.858 349.332C283.05 338.487 268.37 332.394 253.061 332.394C237.752 332.394 223.072 338.488 212.267 349.332C201.466 360.193 195.402 374.89 195.402 390.206C195.402 405.525 201.466 420.222 212.267 431.083C214.44 433.262 217.97 433.269 220.149 431.096C222.329 428.92 222.336 425.39 220.163 423.21C211.441 414.439 206.545 402.576 206.545 390.206C206.545 377.839 211.441 365.973 220.163 357.205C228.878 348.457 240.717 343.541 253.064 343.541C265.411 343.541 277.254 348.457 285.969 357.205L285.966 357.204Z" fill="white"/>
<path d="M282.094 409.968C282.939 410.114 283.795 410.19 284.655 410.197C289.823 410.194 294.67 407.669 297.639 403.436C300.608 399.203 301.328 393.786 299.569 388.926C318.018 363.289 322.114 343.176 311.054 332.093C307.288 328.318 300.278 324.327 288.277 326.729V326.725C285.261 327.329 283.304 330.265 283.908 333.284C284.512 336.303 287.448 338.26 290.466 337.656C299.141 335.921 302.17 338.963 303.165 339.962C309.405 346.215 305.116 361.425 292.032 380.274C287.707 377.995 282.571 377.84 278.116 379.853C273.661 381.867 270.383 385.821 269.235 390.572C268.084 395.325 269.192 400.341 272.234 404.166C271.372 405.062 270.506 405.958 269.633 406.833C247.888 428.625 224.268 443.271 210.856 443.271C207.442 443.271 204.858 442.342 202.961 440.445C199.958 437.436 199.345 432.447 201.136 425.616V425.613C201.916 422.634 200.134 419.588 197.155 418.809C194.18 418.029 191.131 419.811 190.351 422.79C186.785 436.404 190.948 444.187 195.069 448.317C199.106 452.368 204.417 454.418 210.86 454.418C230.8 454.418 258.371 433.9 277.526 414.702C279.065 413.153 280.587 411.567 282.094 409.968ZM284.655 389.563C286.575 389.553 288.31 390.701 289.053 392.473C289.796 394.244 289.398 396.291 288.042 397.651C286.688 399.015 284.645 399.426 282.87 398.693C281.095 397.96 279.934 396.228 279.934 394.307C279.941 391.7 282.044 389.583 284.655 389.563Z" fill="white"/>
<path d="M218.638 405.034C216.01 406.636 215.181 410.067 216.787 412.694L217.009 413.055H217.012C217.785 414.323 219.036 415.225 220.479 415.567C221.925 415.908 223.445 415.663 224.705 414.877C225.966 414.094 226.861 412.84 227.196 411.393C227.528 409.944 227.269 408.424 226.477 407.17L226.301 406.882H226.297C224.695 404.258 221.265 403.428 218.638 405.034Z" fill="white"/>
<path d="M642.113 322.361C635.956 324.875 631.05 329.729 628.472 335.86C625.895 341.991 625.858 348.89 628.369 355.048C630.881 361.205 635.734 366.111 641.865 368.688C647.995 371.269 654.896 371.306 661.053 368.794C667.21 366.283 672.119 361.43 674.697 355.299C677.274 349.168 677.311 342.265 674.799 336.108C672.325 329.921 667.475 324.984 661.331 322.4C655.187 319.819 648.267 319.802 642.114 322.36L642.113 322.361ZM664.422 350.97C662.747 354.964 659.307 357.947 655.117 359.045C650.931 360.146 646.469 359.234 643.049 356.58C639.628 353.926 637.635 349.832 637.658 345.503C637.681 341.171 639.715 337.1 643.165 334.48C646.611 331.863 651.083 331 655.26 332.141C659.436 333.283 662.843 336.305 664.478 340.312C665.885 343.732 665.865 347.57 664.422 350.978L664.422 350.97Z" fill="white"/>
<path d="M668.856 304.484C656.08 299.113 641.534 299.989 629.495 306.853C617.459 313.716 609.295 325.789 607.414 339.519C605.53 353.246 610.141 367.073 619.888 376.923C629.635 386.776 643.408 391.532 657.155 389.797C670.906 388.062 683.064 380.031 690.057 368.068C697.05 356.102 698.082 341.569 692.847 328.738C688.408 317.774 679.77 309.04 668.856 304.484ZM682.393 358.528V358.531C678.366 368.108 670.112 375.271 660.057 377.908C650.006 380.545 639.301 378.355 631.09 371.986C622.88 365.617 618.096 355.791 618.153 345.397C618.206 335.004 623.092 325.231 631.369 318.947C639.649 312.664 650.378 310.591 660.403 313.331C670.425 316.074 678.602 323.323 682.53 332.947C685.904 341.151 685.854 350.363 682.394 358.53L682.393 358.528Z" fill="white"/>
<path d="M525.696 36.2247C527.099 32.6254 527.152 28.6578 525.849 25.0229C524.545 21.3896 521.968 18.3231 518.572 16.3699C515.179 14.4149 511.187 13.6988 507.304 14.3471C501.157 9.23554 496.616 7.77628 493.797 10.0231C492.896 10.7409 490.152 12.9267 493.976 21.0603C494.311 21.773 494.689 22.5112 495.099 23.2664C494.879 23.7076 494.674 24.1607 494.493 24.6274V24.6291C492.551 29.6455 493.25 35.2761 496.364 39.6917C499.48 44.1073 504.615 46.746 510.102 46.753C511.639 46.7513 513.17 46.5392 514.649 46.1234C514.845 46.271 515.043 46.4153 515.238 46.5544C518.451 48.8556 521.101 49.9994 523.248 49.9994C524.298 50.0163 525.326 49.6973 526.175 49.0915C529.441 46.7581 527.768 41.3377 525.473 36.7593C525.548 36.5828 525.624 36.4063 525.696 36.2247L525.696 36.2247ZM497.918 14.9849C499.006 15.4669 500.039 16.0608 500.999 16.7549C500.315 17.1893 499.666 17.6696 499.055 18.1956C498.564 17.1672 498.184 16.0913 497.918 14.9866V14.9849ZM506.236 40.3466C504.084 39.5439 502.247 38.093 500.992 36.2025C499.737 34.3137 499.128 32.0839 499.253 29.8338C500.464 31.5307 501.792 33.2549 503.214 34.957C505.012 37.1122 506.864 39.1316 508.706 40.9474C507.862 40.8422 507.032 40.6419 506.236 40.3501L506.236 40.3466ZM515.654 39.5355C512.795 37.0188 510.146 34.2814 507.732 31.3507C505.623 28.8409 503.683 26.2006 501.926 23.4428C503.993 21.1399 506.972 19.818 510.105 19.8112C513.295 19.8129 516.324 21.1858 518.385 23.5666C520.447 25.9475 521.332 29.0957 520.805 32.1723C520.279 35.2489 518.395 37.942 515.653 39.539L515.654 39.5355ZM520.525 43.1687C520.867 42.9023 521.197 42.6223 521.514 42.3304C521.728 42.9278 521.903 43.4861 522.021 43.9561C521.506 43.7254 521.006 43.464 520.525 43.1704V43.1687Z" fill="white"/>
<path d="M41.6462 110.296C52.6933 110.296 63.2851 105.907 71.0981 98.0981C78.9072 90.2891 83.2959 79.6933 83.2959 68.6496C83.2959 57.6026 78.907 47.0108 71.0981 39.1977C63.2857 31.3886 52.6933 27 41.6462 27C30.6026 27 20.0074 31.3889 12.1977 39.1977C4.38865 47.0101 0 57.6026 0 68.6496C0.0132686 79.6899 4.40547 90.2757 12.2113 98.0845C20.0204 105.89 30.606 110.282 41.6462 110.296ZM13.8198 55.8939H33.2293C36.3079 55.8939 38.8025 53.3993 38.8025 50.3208C38.8025 47.2422 36.3079 44.7476 33.2293 44.7476H22.3615C27.6196 41.0321 34.3376 38.0034 41.6454 38.0034C51.2028 38.0465 60.1896 42.5482 65.9517 50.1748C71.7106 57.8014 73.5817 67.6769 71.0073 76.8828C68.4364 86.0852 61.7157 93.5628 52.8352 97.0991C43.958 100.632 33.9394 99.8226 25.7425 94.9063H36.8353C39.9139 94.9063 42.4085 92.4117 42.4085 89.3331C42.4085 86.2546 39.9139 83.76 36.8353 83.76H15.1931C15.14 83.76 15.087 83.4946 15.0372 83.4979C13.7534 81.2587 12.8046 78.8436 12.2141 76.329H27.2186C30.2972 76.329 32.7918 73.8344 32.7918 70.7559C32.7918 67.6773 30.2972 65.1827 27.2186 65.1827H11.3122C11.6971 61.9814 12.5393 58.8535 13.8198 55.8939Z" fill="white"/>
</svg>
